<svg id="Layer_1" data-name="Layer 1" xmlns="http://www.w3.org/2000/svg" viewBox="0 0 34.8 33.2"><defs><style>.cls-1{fill:#fff;}</style></defs><title>starwhite</title><polygon class="cls-1" points="17.27 25.75 8.46 30.27 10.23 20.53 3.21 13.55 13.02 12.22 17.49 3.39 21.78 12.31 31.56 13.83 24.41 20.67 25.98 30.44 17.27 25.75"/><path class="cls-1" d="M17.48,7.5,20.12,13l.68,1.42,1.56.24,6,.93L24,19.76l-1.14,1.09.25,1.56,1,6L18.7,25.52l-1.39-.75-1.4.72-5.4,2.77,1.08-6,.28-1.55-1.12-1.11-4.3-4.28,6-.81L14,14.32l.71-1.41L17.48,7.5M17.55.72,12.07,11.56,0,13.19l8.62,8.56-2.17,12,10.81-5.55L28,33.92,26,21.93l8.78-8.39-12-1.87L17.55.72Z" transform="translate(-0.03 -0.72)"/></svg>